<svg width="100" height="100" viewBox="0 0 100 100" fill="none" xmlns="http://www.w3.org/2000/svg">
<path d="M15.126 85.8302C19.2553 89.8501 24.0772 93.1622 29.3955 95.5706C45.917 68.6374 68.6374 45.917 95.5706 29.3955C93.6759 25.2115 91.2219 21.3349 88.304 17.8609C58.4199 33.813 33.1773 57.3194 15.126 85.8302Z" fill="#04471C"/>
<path d="M100 50C100 46.2748 99.5927 42.6449 98.82 39.1521C74.7505 54.3247 54.3247 74.7505 39.1521 98.82C42.6449 99.5927 46.2749 100 50 100C77.6142 100 100 77.6142 100 50Z" fill="#04471C"/>
<path fill-rule="evenodd" clip-rule="evenodd" d="M11.6126 82.0395C29.8367 53.6739 55.0324 30.2136 84.7798 14.0783C75.7807 5.36349 63.5167 0 50 0C22.3858 0 0 22.3858 0 50C0 62.1909 4.36295 73.3629 11.6126 82.0395ZM15 60C17.7614 60 20 57.7614 20 55C20 52.2386 17.7614 50 15 50C12.2386 50 10 52.2386 10 55C10 57.7614 12.2386 60 15 60Z" fill="#04471C"/>
</svg>
